<svg width="377" height="20" viewBox="0 0 377 20" fill="none" xmlns="http://www.w3.org/2000/svg">
<path d="M375.627 19.2805C354.147 17.3075 332.68 15.1951 311.199 13.4094C298.063 12.3277 284.893 11.6178 271.732 10.9713C259.636 10.3757 247.531 9.87298 235.414 9.68153C215.761 9.37593 196.091 8.92809 176.456 9.2802C123.87 10.1982 71.3105 11.5091 18.7369 12.6313C14.9249 12.7185 10.8745 13.3462 7.39028 12.2608C4.77743 11.4428 1.75009 8.63429 0.961688 6.09388C-0.262663 2.13885 2.86981 0.552132 6.76827 0.550955C28.9375 0.494176 51.1167 0.329006 73.2987 0.304638C114.661 0.245752 156.02 0.0614741 197.383 0.330731C215.67 0.448377 233.994 1.17872 252.244 2.37087C258.416 2.78153 264.584 3.22319 270.774 3.6043C276.088 3.93621 281.427 6.22291 286.592 5.77579C294.293 5.10856 301.356 8.81888 308.64 8.23834C318.426 7.4658 327.446 10.7467 336.878 11.5974C346.794 12.4771 356.721 13.4201 366.606 14.6405C369.823 15.0453 372.921 16.3921 376.074 17.3221C375.937 17.9655 375.797 18.6244 375.658 19.2833L375.627 19.2805Z" fill="#5CD4E3"/>
</svg>
